<?xml version="1.0" encoding="UTF-8"?>
<svg version="1.1" xmlns="http://www.w3.org/2000/svg" width="1024" height="1024">
<path d="M0 0 C1.44981886 0.00222284 2.89963779 0.00439933 4.34945679 0.00653076 C25.02799274 0.04864691 45.49489189 0.32848816 66 3.3125 C67.04601379 3.46168884 67.04601379 3.46168884 68.11315918 3.6138916 C161.01678887 16.906328 249.82025223 53.74341978 322.25585938 113.87255859 C324.71166737 115.90004398 327.20322868 117.88255696 329.6875 119.875 C334.53468928 123.83218943 339.12292433 128.03819154 343.67456055 132.32836914 C346.03816744 134.54912671 348.29359527 136.50823018 351 138.3125 C351 138.9725 351 139.6325 351 140.3125 C351.58031982 140.56757324 352.16063965 140.82264648 352.75854492 141.08544922 C355.23265718 142.43986466 356.87721002 143.94662266 358.86328125 145.9453125 C359.94706055 147.03199219 359.94706055 147.03199219 361.05273438 148.140625 C362.17131836 149.27757812 362.17131836 149.27757812 363.3125 150.4375 C364.41368164 151.53964844 364.41368164 151.53964844 365.53710938 152.6640625 C369.66592086 156.82584586 373.62465888 161.08568264 377.4519043 165.52587891 C379.49456009 167.88326025 381.62288092 170.15634816 383.75 172.4375 C388.49433073 177.64049715 392.84432725 183.07929834 397.1484375 188.6484375 C399.05896084 191.11878247 401.00083041 193.55806048 402.9765625 195.9765625 C410.16015581 204.77666783 416.71537657 213.85244291 423 223.3125 C423.49580566 224.05032715 423.99161133 224.7881543 424.50244141 225.54833984 C472.42485177 296.95590496 501.9756214 379.69268069 500.9375 612.8828125 C491.99834976 657.63756612 476.40442327 700.55019337 456 741.3125 C455.52481934 742.27075684 455.04963867 743.22901367 454.56005859 744.21630859 C437.70546046 778.0584914 416.30239246 809.39098843 392 838.3125 C391.57460938 838.82280762 391.14921875 839.33311523 390.7109375 839.85888672 C379.79540008 852.93024277 368.08644402 865.26024424 356.125 877.375 C355.24158936 878.27798828 355.24158936 878.27798828 354.34033203 879.19921875 C352.93235188 880.61012436 351.47092744 881.96734751 350 883.3125 C349.34 883.3125 348.68 883.3125 348 883.3125 C348 883.9725 348 884.6325 348 885.3125 C346.77734375 886.58203125 346.77734375 886.58203125 344.9375 888.125 C342.17867686 890.46273961 339.43114573 892.80684988 336.7265625 895.20703125 C328.14373192 902.79512418 319.2665299 909.87104049 310.09667969 916.73486328 C308.07615438 918.255198 306.07137856 919.79402273 304.0703125 921.33984375 C284.36427749 936.48268918 262.99939317 949.21313066 241.21142578 961.10253906 C239.14464264 962.23336013 237.08582706 963.37760508 235.02734375 964.5234375 C168.34207247 1001.20820542 89.78298068 1019.6524128 14 1021.3125 C13.02450195 1021.33441406 12.04900391 1021.35632813 11.04394531 1021.37890625 C-47.88189391 1022.48204209 -106.02604934 1013.79422346 -162 995.3125 C-162.92989746 995.00844238 -163.85979492 994.70438477 -164.81787109 994.39111328 C-177.91758547 990.07866271 -190.61717085 984.89224868 -203.29248047 979.46875 C-205.66053868 978.45746743 -208.03377179 977.46024731 -210.41015625 976.46875 C-220.93484 972.03363354 -230.9860189 966.79348064 -241 961.3125 C-241.90169922 960.81975586 -242.80339844 960.32701172 -243.73242188 959.81933594 C-264.7207447 948.29105175 -284.82806136 935.66770282 -304 921.3125 C-304.90202148 920.64009277 -304.90202148 920.64009277 -305.82226562 919.95410156 C-313.05284572 914.54549663 -320.00855876 908.84951049 -326.86328125 902.9765625 C-329.79947962 900.4665427 -332.80012519 898.04320985 -335.8125 895.625 C-339.95886328 892.26062629 -343.75598863 888.70539341 -347.44140625 884.84375 C-348.94013391 883.21417459 -348.94013391 883.21417459 -351 882.3125 C-351 881.6525 -351 880.9925 -351 880.3125 C-351.58426758 880.05275391 -352.16853516 879.79300781 -352.77050781 879.52539062 C-355.15561164 878.227844 -356.75190637 876.81908878 -358.671875 874.90625 C-359.33574219 874.24496094 -359.99960937 873.58367188 -360.68359375 872.90234375 C-361.36550781 872.21269531 -362.04742187 871.52304687 -362.75 870.8125 C-363.44738281 870.12285156 -364.14476562 869.43320312 -364.86328125 868.72265625 C-365.52199219 868.06136719 -366.18070313 867.40007813 -366.859375 866.71875 C-367.46233398 866.11353516 -368.06529297 865.50832031 -368.68652344 864.88476562 C-370 863.3125 -370 863.3125 -370 861.3125 C-370.66 861.3125 -371.32 861.3125 -372 861.3125 C-373.41015625 859.9140625 -373.41015625 859.9140625 -375.0625 857.9375 C-377.77923786 854.73703655 -380.54335219 851.59943937 -383.375 848.5 C-388.10518353 843.2504551 -392.58457528 837.82813781 -397 832.3125 C-397.41475586 831.7973584 -397.82951172 831.2822168 -398.25683594 830.75146484 C-413.63646077 811.61661935 -427.62178219 791.50928244 -440 770.3125 C-440.45101074 769.54728027 -440.90202148 768.78206055 -441.36669922 767.99365234 C-477.20470569 707.08239109 -500.94138023 637.78625771 -508 567.3125 C-508.12760208 566.06161591 -508.12760208 566.06161591 -508.25778198 564.78546143 C-510.03749159 546.79888758 -510.36235452 528.87251284 -510.3125 510.8125 C-510.31027687 509.38659675 -510.30810038 507.96069343 -510.30596924 506.53479004 C-510.26344572 485.99436882 -509.95449553 465.67797985 -507 445.3125 C-506.90054077 444.61644653 -506.80108154 443.92039307 -506.6986084 443.20324707 C-493.9224837 354.22332351 -460.48459604 271.19747633 -390 180.3125 C-389.43361816 179.6417041 -388.86723633 178.9709082 -388.28369141 178.27978516 C-382.17315086 171.06110641 -375.95987769 164.09890482 -369.18359375 157.49609375 C-367.23410106 155.54660106 -365.45486672 153.55056193 -363.6875 151.4375 C-359.15769696 146.15625768 -353.92225425 141.60307213 -348.77783203 136.9375 C-346.98200235 135.29604952 -345.20527535 133.63621503 -343.43359375 131.96875 C-336.50684358 125.45146757 -329.47795398 119.20020554 -322 113.3125 C-321.35579102 112.80106445 -320.71158203 112.28962891 -320.04785156 111.76269531 C-248.73323062 55.20057262 -163.85507299 17.29894296 -73.5625 4.375 C-72.25772705 4.18776367 -70.9529541 4.00052734 -69.60864258 3.80761719 C-46.45044794 0.71889568 -23.33376233 -0.06331319 0 0 Z " fill="#1877F2" transform="translate(512,1.6875)"/>
<path d="M0 0 C0.95738068 0.10323578 1.91476135 0.20647156 2.90115356 0.31283569 C5.69660969 0.61726154 8.49101389 0.92985271 11.28515625 1.24609375 C12.07901733 1.33364929 12.87287842 1.42120483 13.6907959 1.51141357 C22.8313011 2.57326801 31.82323212 4.12340507 40.9375 5.5625 C40.9375 47.1425 40.9375 88.7225 40.9375 131.5625 C2.9375 131.875 2.9375 131.875 -8.9609375 131.95043945 C-12.55055777 131.98710001 -12.55055777 131.98710001 -16.14013672 132.0275116 C-17.71105613 132.04342321 -19.28203786 132.05387016 -20.85302734 132.05961609 C-44.5888193 132.15773345 -68.28193076 136.56001078 -86.0625 153.5625 C-91.52829181 159.57576849 -95.60974536 166.06358986 -98.9375 173.4375 C-99.21166748 174.03626953 -99.48583496 174.63503906 -99.76831055 175.25195312 C-106.01136572 190.06006908 -105.5345191 205.4524393 -105.57421875 221.2109375 C-105.58971335 223.40080719 -105.60651524 225.59066803 -105.62463379 227.78051758 C-105.68220804 235.83274766 -105.71462942 243.88514178 -105.75 251.9375 C-105.853125 269.96375 -105.95625 287.99 -106.0625 306.5625 C-59.5325 306.5625 -13.0025 306.5625 34.9375 306.5625 C31.55480843 334.75159642 31.55480843 334.75159642 29.625 345.5 C27.51291787 357.69972317 25.71215611 369.92597045 24 382.1875 C21.87466165 397.388894 19.53713318 412.53821472 16.94165039 427.66650391 C16.76252861 428.71401321 16.76252861 428.71401321 16.57978821 429.78268433 C16.26233008 431.63386194 15.94139142 433.4844418 15.62011719 435.33496094 C14.64116694 441.39773004 13.80601037 447.48292744 12.9375 453.5625 C-26.3325 453.5625 -65.6025 453.5625 -106.0625 453.5625 C-106.0625 571.7025 -106.0625 689.8425 -106.0625 811.5625 C-130.42938034 815.04348291 -130.42938034 815.04348291 -139.0625 815.6875 C-140.06047607 815.76532715 -141.05845215 815.8431543 -142.08666992 815.92333984 C-182.60978028 818.98641308 -225.97850559 819.57929888 -266.0625 811.5625 C-266.0625 693.7525 -266.0625 575.9425 -266.0625 454.5625 C-308.6325 454.5625 -351.2025 454.5625 -395.0625 454.5625 C-395.0625 405.7225 -395.0625 356.8825 -395.0625 306.5625 C-352.1625 306.5625 -309.2625 306.5625 -265.0625 306.5625 C-265.10890625 296.68570312 -265.1553125 286.80890625 -265.203125 276.6328125 C-265.2235953 270.32551654 -265.24302035 264.01824512 -265.2578125 257.7109375 C-265.28141247 247.72908163 -265.30892995 237.74736222 -265.36425781 227.765625 C-265.40455934 220.49123128 -265.43003368 213.21694983 -265.43885398 205.94244754 C-265.44399684 202.10285883 -265.45577867 198.26359081 -265.48542023 194.4241066 C-265.9051723 137.82210894 -251.26460337 85.75890673 -211.0625 44.5625 C-155.2028442 -10.77347153 -72.40990648 -7.86458109 0 0 Z " fill="#FEFEFE" transform="translate(698.0625,205.4375)"/>
</svg>
